<svg xmlns="http://www.w3.org/2000/svg" viewBox="0 0 240 160" width="240" height="160"><rect width="240" height="160" fill="#161110"/><rect x="134" y="24" width="84" height="112" fill="#2a201a"/><circle cx="176" cy="66" r="16" fill="#d9622a" opacity="0.55"/><path d="M134 136 L172 96 L196 116 L218 98 L218 136 Z" fill="#3b2d24"/><rect x="22" y="46" width="30" height="3" rx="1.5" fill="#d9622a"/><rect x="22" y="56" width="30" height="7" rx="2" fill="#d9622a"/><rect x="57" y="56" width="59" height="7" rx="2" fill="#efe5d8"/><rect x="22" y="78" width="94" height="3" rx="1.5" fill="#8f8175"/><rect x="22" y="87" width="94" height="3" rx="1.5" fill="#8f8175"/><rect x="22" y="96" width="94" height="3" rx="1.5" fill="#8f8175"/><rect x="22" y="105" width="94" height="3" rx="1.5" fill="#8f8175"/><rect x="22" y="114" width="56" height="3" rx="1.5" fill="#8f8175"/><rect x="22" y="126" width="34" height="3" rx="1.5" fill="#d9622a"/></svg>